Coordinates
version=1
nRows=12
nColumns=34
inDegrees=no

Units are S.I. units (second, meters, Newtons, ...)
If the header above contains a line with 'inDegrees', this indicates whether rotational values are in degrees (yes) or radians (no).

endheader
time	pelvis_tilt	pelvis_list	pelvis_rotation	pelvis_tx	pelvis_ty	pelvis_tz	hip_flexion_r	hip_adduction_r	hip_rotation_r	knee_angle_r	ankle_angle_r	subtalar_angle_r	mtp_angle_r	hip_flexion_l	hip_adduction_l	hip_rotation_l	knee_angle_l	ankle_angle_l	subtalar_angle_l	mtp_angle_l	lumbar_extension	lumbar_bending	lumbar_rotation	arm_flex_r	arm_add_r	arm_rot_r	elbow_flex_r	pro_sup_r	arm_flex_l	arm_add_l	arm_rot_l	elbow_flex_l	pro_sup_l
3.36	-0.330918	0.0124251	0.0291308	-0.311022	0.793015	-0.603539	1.18047	-0.26262	-0.0512143	1.20692	0.519192	-0.0138163	-0.126539	1.17827	-0.199007	-0.0504964	1.16737	0.441148	-0.0254802	-0.126544	-0.268325	0.0138518	-0.0699316	1.36899	-0.133922	0.288064	1.67251	1.82721	1.32711	-0.131993	0.24992	1.70383	1.61947
3.37	-0.337161	0.0128316	0.0291923	-0.31324	0.787381	-0.603798	1.20281	-0.265236	-0.047337	1.22585	0.522393	-0.0121332	-0.126539	1.19999	-0.199359	-0.0479478	1.18619	0.445102	-0.0256279	-0.126544	-0.272783	0.0150323	-0.0700751	1.3821	-0.132326	0.293209	1.6924	1.82948	1.33671	-0.131453	0.252791	1.72301	1.62105
3.38	-0.343167	0.0130314	0.0291947	-0.315416	0.781811	-0.604041	1.22455	-0.267748	-0.0438386	1.24427	0.525637	-0.0101551	-0.126539	1.22125	-0.200091	-0.0455233	1.20459	0.449034	-0.0252033	-0.126544	-0.277339	0.0163373	-0.0700924	1.3947	-0.130916	0.298206	1.7117	1.83178	1.34602	-0.131048	0.255834	1.74149	1.62254
3.39	-0.348971	0.0131012	0.0291329	-0.317551	0.776306	-0.604265	1.24575	-0.270174	-0.0406227	1.26218	0.529042	-0.00782637	-0.126539	1.24207	-0.201146	-0.0432564	1.22257	0.452981	-0.0242519	-0.126544	-0.281952	0.0176682	-0.0700331	1.40682	-0.129652	0.302999	1.73034	1.83418	1.35509	-0.130846	0.259092	1.75928	1.62386
3.4	-0.354614	0.0131517	0.0290162	-0.319646	0.770865	-0.604471	1.26649	-0.272552	-0.0375471	1.27962	0.532704	-0.00511022	-0.126539	1.26244	-0.202425	-0.0411941	1.2401	0.456968	-0.0228583	-0.126544	-0.286576	0.0189116	-0.0699847	1.41847	-0.128474	0.307583	1.74823	1.83678	1.36399	-0.130942	0.262576	1.77641	1.62504
3.41	-0.360134	0.0133096	0.0288643	-0.321703	0.765487	-0.604662	1.28687	-0.274929	-0.0344414	1.29664	0.536686	-0.00199845	-0.126539	1.28236	-0.203803	-0.0393889	1.25718	0.461006	-0.0211355	-0.126544	-0.291168	0.0199523	-0.070043	1.42971	-0.127329	0.311995	1.76527	1.83975	1.37274	-0.131415	0.266268	1.79292	1.62617
3.42	-0.365556	0.0136925	0.0286993	-0.323722	0.760172	-0.604844	1.307	-0.27733	-0.0311315	1.31329	0.541018	0.00147475	-0.126539	1.30183	-0.205152	-0.0378833	1.2738	0.465098	-0.0192085	-0.126544	-0.295694	0.020688	-0.0702762	1.44057	-0.126199	0.316297	1.78136	1.84325	1.38138	-0.132296	0.270132	1.80882	1.62743
3.43	-0.370893	0.0143854	0.0285362	-0.325705	0.75492	-0.605019	1.32693	-0.279745	-0.0274658	1.32962	0.545686	0.00521869	-0.126539	1.32082	-0.206374	-0.0366945	1.28997	0.46924	-0.0171972	-0.126544	-0.300138	0.0210451	-0.0707024	1.45112	-0.125111	0.320547	1.79645	1.84749	1.38993	-0.133551	0.274125	1.82408	1.62899
3.44	-0.376141	0.0154233	0.028379	-0.327651	0.749732	-0.605189	1.34671	-0.282118	-0.0233392	1.34568	0.550629	0.009085	-0.126539	1.33933	-0.207408	-0.0358019	1.3057	0.473422	-0.0152045	-0.126544	-0.304501	0.0209919	-0.0712859	1.46137	-0.124119	0.324792	1.81049	1.85254	1.39839	-0.135098	0.278205	1.83868	1.63095
3.45	-0.381286	0.0167834	0.028221	-0.329558	0.744611	-0.605353	1.36631	-0.284352	-0.0187119	1.36147	0.555742	0.0128868	-0.126539	1.35737	-0.208244	-0.0351413	1.32102	0.477625	-0.0133083	-0.126544	-0.308792	0.0205462	-0.0719471	1.47137	-0.123296	0.329067	1.8235	1.85819	1.40677	-0.136814	0.282324	1.85256	1.63329
3.46	-0.386303	0.0183883	0.0280481	-0.331422	0.739557	-0.605506	1.3857	-0.286328	-0.0136184	1.377	0.560893	0.0164291	-0.126539	1.37495	-0.208903	-0.0346044	1.33595	0.481824	-0.0115594	-0.126544	-0.313031	0.0197752	-0.0725822	1.4811	-0.122714	0.333381	1.83553	1.86413	1.41503	-0.138563	0.286432	1.8657	1.63587
3.47	-0.391155	0.0201177	0.027844	-0.333241	0.734575	-0.605645	1.40479	-0.287929	-0.0081611	1.39227	0.565936	0.0195358	-0.126539	1.39208	-0.209431	-0.0340473	1.35055	0.485985	-0.00998673	-0.126544	-0.317244	0.0187874	-0.0730876	1.49055	-0.122426	0.337724	1.84661	1.87008	1.42316	-0.140222	0.290477	1.87806	1.63859
